<?xml version="1.0" encoding="UTF-8" standalone="no"?>
<svg
   xmlns:dc="http://purl.org/dc/elements/1.1/"
   xmlns:cc="http://creativecommons.org/ns#"
   xmlns:rdf="http://www.w3.org/1999/02/22-rdf-syntax-ns#"
   xmlns:svg="http://www.w3.org/2000/svg"
   xmlns="http://www.w3.org/2000/svg"
   width="16"
   height="16"
   viewBox="0 0 16 16"
   version="1.1"
   id="svg889">
  <defs
     id="defs883" />
  <metadata
     id="metadata886">
    <rdf:RDF>
      <cc:Work
         rdf:about="">
        <dc:format>image/svg+xml</dc:format>
        <dc:type
           rdf:resource="http://purl.org/dc/dcmitype/StillImage" />
        <dc:title></dc:title>
      </cc:Work>
    </rdf:RDF>
  </metadata>
  <g
     style="opacity:0.32699998"
     transform="matrix(3.779544,0,0,3.779544,-33.204139,-1099.9859)"
     id="g2122">
    <path
       style="opacity:1;fill:none;fill-opacity:1;stroke:#000000;stroke-width:0.5291667;stroke-linecap:round;stroke-linejoin:round;stroke-miterlimit:4;stroke-dasharray:none;stroke-opacity:1"
       d="m 10.901881,291.56583 0.793785,0.004 c 0.439723,0.002 0.79588,0.35051 0.79723,0.79025 l 0.007,2.12414"
       id="path2447" />
    <path
       style="fill:none;fill-opacity:1;stroke:#000000;stroke-width:0.5291667;stroke-linecap:round;stroke-linejoin:round;stroke-miterlimit:4;stroke-dasharray:none;stroke-opacity:1"
       d="m 11.694171,294.21314 0.79521,0.79228 0.79228,-0.79521"
       id="path2449" />
    <path
       id="path2451"
       d="m 10.901881,294.74083 -0.769088,3e-5 c -0.4397288,2e-5 -0.7975774,-0.34663 -0.8010686,-0.78636 l -0.017343,-2.12408"
       style="opacity:1;fill:none;fill-opacity:1;stroke:#000000;stroke-width:0.5291667;stroke-linecap:round;stroke-linejoin:round;stroke-miterlimit:4;stroke-dasharray:none;stroke-opacity:1" />
    <path
       id="path2453"
       d="m 10.11344,292.08965 -0.7990586,-0.7884 -0.7883986,0.79906"
       style="fill:none;fill-opacity:1;stroke:#000000;stroke-width:0.5291667;stroke-linecap:round;stroke-linejoin:round;stroke-miterlimit:4;stroke-dasharray:none;stroke-opacity:1" />
  </g>
  <path
     id="rect9045"
     d="M 1.984375 0 A 1.0001 1.0001 0 0 0 1.2890625 0.296875 L -1.6914062 3.3183594 A 1.0001 1.0001 0 1 0 -0.26757812 4.7226562 L 1 3.4375 L 1 11 C 1 13.198703 2.8012972 15 5 15 L 8 15 A 1.0001 1.0001 0 1 0 8 13 L 5 13 C 3.8747028 13 3 12.125297 3 11 L 3 3.4140625 L 4.2929688 4.7070312 A 1.0001 1.0001 0 1 0 5.7070312 3.2929688 L 2.7070312 0.29296875 A 1.0001 1.0001 0 0 0 1.984375 0 z M 8 1 A 1.0001 1.0001 0 1 0 8 3 L 11 3 C 12.125297 3 13 3.8747028 13 5 L 13 12.585938 L 11.707031 11.292969 A 1.0001 1.0001 0 0 0 10.990234 10.990234 A 1.0001 1.0001 0 0 0 10.292969 12.707031 L 13.292969 15.707031 A 1.0001 1.0001 0 0 0 14.707031 15.707031 L 17.707031 12.707031 A 1.0001 1.0001 0 1 0 16.292969 11.292969 L 15 12.585938 L 15 5 C 15 2.8012972 13.198703 1 11 1 L 8 1 z "
     style="color:#000000;font-style:normal;font-variant:normal;font-weight:normal;font-stretch:normal;font-size:medium;line-height:normal;font-family:sans-serif;font-variant-ligatures:normal;font-variant-position:normal;font-variant-caps:normal;font-variant-numeric:normal;font-variant-alternates:normal;font-feature-settings:normal;text-indent:0;text-align:start;text-decoration:none;text-decoration-line:none;text-decoration-style:solid;text-decoration-color:#000000;letter-spacing:normal;word-spacing:normal;text-transform:none;writing-mode:lr-tb;direction:ltr;text-orientation:mixed;dominant-baseline:auto;baseline-shift:baseline;text-anchor:start;white-space:normal;shape-padding:0;clip-rule:nonzero;display:inline;overflow:visible;visibility:visible;opacity:1;isolation:auto;mix-blend-mode:normal;color-interpolation:sRGB;color-interpolation-filters:linearRGB;solid-color:#000000;solid-opacity:1;vector-effect:none;fill:#000000;fill-opacity:1;fill-rule:nonzero;stroke:none;stroke-width:2;stroke-linecap:round;stroke-linejoin:round;stroke-miterlimit:4;stroke-dasharray:none;stroke-dashoffset:0;stroke-opacity:1;color-rendering:auto;image-rendering:auto;shape-rendering:auto;text-rendering:auto;enable-background:accumulate" />
</svg>
