<?xml version="1.0" encoding="UTF-8" standalone="no"?>
<svg
   xmlns:dc="http://purl.org/dc/elements/1.1/"
   xmlns:cc="http://creativecommons.org/ns#"
   xmlns:rdf="http://www.w3.org/1999/02/22-rdf-syntax-ns#"
   xmlns:svg="http://www.w3.org/2000/svg"
   xmlns="http://www.w3.org/2000/svg"
   id="svg889"
   version="1.1"
   viewBox="0 0 16 16"
   height="16"
   width="16">
  <defs
     id="defs883" />
  <metadata
     id="metadata886">
    <rdf:RDF>
      <cc:Work
         rdf:about="">
        <dc:format>image/svg+xml</dc:format>
        <dc:type
           rdf:resource="http://purl.org/dc/dcmitype/StillImage" />
        <dc:title></dc:title>
      </cc:Work>
    </rdf:RDF>
  </metadata>
  <g
     style="opacity:1"
     transform="matrix(3.7795335,0,0,3.7795335,30.000041,-1131.5214)"
     id="g2139">
    <g
       style="opacity:1"
       transform="matrix(0.99927756,0,0,0.99927756,-12.165103,6.8287564)"
       id="g2116" />
    <g
       style="opacity:1"
       transform="matrix(1.0003135,0,0,1.0003135,-0.78883659,8.7755168)"
       id="g2130" />
    <g
       style="opacity:1"
       transform="matrix(1.0003135,0,0,1.0003135,-6.0855013,0.43545705)"
       id="g2145">
      <path
         id="path831"
         transform="matrix(0.2645,0,0,0.2645,-1.8514167,298.85209)"
         d="M 7.9960938 -0.001953125 C 3.5882726 -0.001953125 -5.9211895e-016 3.594127 0 8.0019531 C 0 12.409779 3.5882726 16.007812 7.9960938 16.007812 C 12.403915 16.007812 16.001953 12.409779 16.001953 8.0019531 C 16.001953 3.594127 12.403915 -0.001953125 7.9960938 -0.001953125 z M 7.9960938 2 C 11.322696 2 14 4.6753746 14 8.0019531 C 14 11.328532 11.322696 14.005859 7.9960938 14.005859 C 4.6694917 14.005859 2 11.328532 2 8.0019531 C 2 4.6753746 4.6694917 2 7.9960938 2 z M 6 5.0019531 A 1.0003149 1.0003314 0 0 0 5 6.0019531 A 1.0003149 1.0003314 0 0 0 6 7.0019531 A 1.0003149 1.0003314 0 0 0 7 6.0019531 A 1.0003149 1.0003314 0 0 0 6 5.0019531 z M 10 5.0019531 A 1.0003151 1.0003314 0 0 0 9 6.0019531 A 1.0003151 1.0003314 0 0 0 10 7.0019531 A 1.0003151 1.0003314 0 0 0 11 6.0019531 A 1.0003151 1.0003314 0 0 0 10 5.0019531 z M 10.919922 8.8632812 A 1.0004151 1.0004151 0 0 0 10.123047 9.2128906 C 9.5599887 9.775953 8.7923781 10.091797 7.9960938 10.091797 C 6.9992246 10.091797 6.4400112 9.7759152 5.8769531 9.2128906 A 1.0004151 1.0004151 0 0 0 5.1601562 8.9042969 A 1.0004151 1.0004151 0 0 0 4.4667969 10.623047 C 5.4045024 11.560741 6.9992246 12.085938 7.9960938 12.085938 C 9.3222096 12.085938 10.595497 11.560741 11.533203 10.623047 A 1.0004151 1.0004151 0 0 0 10.919922 8.8632812 z "
         style="color:#000000;font-style:normal;font-variant:normal;font-weight:normal;font-stretch:normal;font-size:medium;line-height:normal;font-family:sans-serif;font-variant-ligatures:normal;font-variant-position:normal;font-variant-caps:normal;font-variant-numeric:normal;font-variant-alternates:normal;font-feature-settings:normal;text-indent:0;text-align:start;text-decoration:none;text-decoration-line:none;text-decoration-style:solid;text-decoration-color:#000000;letter-spacing:normal;word-spacing:normal;text-transform:none;writing-mode:lr-tb;direction:ltr;text-orientation:mixed;dominant-baseline:auto;baseline-shift:baseline;text-anchor:start;white-space:normal;shape-padding:0;clip-rule:nonzero;display:inline;overflow:visible;visibility:visible;opacity:1;isolation:auto;mix-blend-mode:normal;color-interpolation:sRGB;color-interpolation-filters:linearRGB;solid-color:#000000;solid-opacity:1;vector-effect:none;fill:#000000;fill-opacity:1;fill-rule:nonzero;stroke:none;stroke-width:2.00063014;stroke-linecap:round;stroke-linejoin:round;stroke-miterlimit:4;stroke-dasharray:none;stroke-dashoffset:0;stroke-opacity:1;color-rendering:auto;image-rendering:auto;shape-rendering:auto;text-rendering:auto;enable-background:accumulate" />
    </g>
  </g>
</svg>
