<?xml version="1.0" encoding="UTF-8" standalone="no"?>
<svg
   xmlns:dc="http://purl.org/dc/elements/1.1/"
   xmlns:cc="http://creativecommons.org/ns#"
   xmlns:rdf="http://www.w3.org/1999/02/22-rdf-syntax-ns#"
   xmlns:svg="http://www.w3.org/2000/svg"
   xmlns="http://www.w3.org/2000/svg"
   id="svg889"
   version="1.1"
   viewBox="0 0 16 16"
   height="16"
   width="16">
  <defs
     id="defs883" />
  <metadata
     id="metadata886">
    <rdf:RDF>
      <cc:Work
         rdf:about="">
        <dc:format>image/svg+xml</dc:format>
        <dc:type
           rdf:resource="http://purl.org/dc/dcmitype/StillImage" />
        <dc:title></dc:title>
      </cc:Work>
    </rdf:RDF>
  </metadata>
  <path
     id="path2418"
     d="M 7.9667969,-1 A 1.0001,1.0001 0 0 0 7.0800781,-0.39257812 L 5.1640625,4.0996094 0.30078125,4.5332031 a 1.0001,1.0001 0 0 0 -0.56835937,1.75 L 3.4238281,9.5058594 2.4648438,14.279297 a 1.0001,1.0001 0 0 0 1.5058593,1.048828 l 4.0371094,-2.496094 4.1816405,2.501953 a 1.0001,1.0001 0 0 0 1.488281,-1.080078 l -1.08789,-4.7597654 3.677734,-3.2109375 a 1.0001,1.0001 0 0 0 -0.568359,-1.75 L 10.835938,4.0996094 8.9199219,-0.39257812 A 1.0001,1.0001 0 0 0 7.9667969,-1 Z M 8,2.546875 9.2324219,5.4335938 A 1.0001,1.0001 0 0 0 10.0625,6.0371094 l 3.125,0.2792968 -2.363281,2.0644532 a 1.0001,1.0001 0 0 0 -0.31836,0.9765625 L 11.205078,12.416016 8.5136719,10.804688 A 1.0001,1.0001 0 0 0 7.4746094,10.8125 L 4.8808594,12.414062 5.5,9.3300781 A 1.0001,1.0001 0 0 0 5.1757812,8.3808594 L 2.8125,6.3164062 5.9375,6.0371094 A 1.0001,1.0001 0 0 0 6.7675781,5.4335938 Z"
     style="color:#000000;font-style:normal;font-variant:normal;font-weight:normal;font-stretch:normal;font-size:medium;line-height:normal;font-family:sans-serif;font-variant-ligatures:normal;font-variant-position:normal;font-variant-caps:normal;font-variant-numeric:normal;font-variant-alternates:normal;font-feature-settings:normal;text-indent:0;text-align:start;text-decoration:none;text-decoration-line:none;text-decoration-style:solid;text-decoration-color:#000000;letter-spacing:normal;word-spacing:normal;text-transform:none;writing-mode:lr-tb;direction:ltr;text-orientation:mixed;dominant-baseline:auto;baseline-shift:baseline;text-anchor:start;white-space:normal;shape-padding:0;clip-rule:nonzero;display:inline;overflow:visible;visibility:visible;opacity:1;isolation:auto;mix-blend-mode:normal;color-interpolation:sRGB;color-interpolation-filters:linearRGB;solid-color:#000000;solid-opacity:1;vector-effect:none;fill:#000000;fill-opacity:1;fill-rule:nonzero;stroke:none;stroke-width:2;stroke-linecap:round;stroke-linejoin:round;stroke-miterlimit:4;stroke-dasharray:none;stroke-dashoffset:0;stroke-opacity:1;color-rendering:auto;image-rendering:auto;shape-rendering:auto;text-rendering:auto;enable-background:accumulate" />
</svg>
