<?xml version="1.0" encoding="UTF-8" standalone="no"?>
<svg
   xmlns:dc="http://purl.org/dc/elements/1.1/"
   xmlns:cc="http://creativecommons.org/ns#"
   xmlns:rdf="http://www.w3.org/1999/02/22-rdf-syntax-ns#"
   xmlns:svg="http://www.w3.org/2000/svg"
   xmlns="http://www.w3.org/2000/svg"
   id="svg889"
   version="1.1"
   viewBox="0 0 16 16"
   height="16"
   width="16">
  <defs
     id="defs883" />
  <metadata
     id="metadata886">
    <rdf:RDF>
      <cc:Work
         rdf:about="">
        <dc:format>image/svg+xml</dc:format>
        <dc:type
           rdf:resource="http://purl.org/dc/dcmitype/StillImage" />
        <dc:title></dc:title>
      </cc:Work>
    </rdf:RDF>
  </metadata>
  <g
     style="opacity:1"
     transform="matrix(3.7795335,0,0,3.7795335,30.000041,-1131.5214)"
     id="g2139">
    <g
       style="opacity:1"
       transform="matrix(0.99927756,0,0,0.99927756,-12.165103,6.8287564)"
       id="g2116" />
    <g
       style="opacity:1"
       transform="translate(-13.229166,2.3812547)"
       id="g2126">
      <path
         id="rect2467"
         transform="matrix(0.26458292,0,0,0.26458292,5.2916676,296.99998)"
         d="M 3.0019531 0.99609375 C 1.3572381 0.99609375 -0.001953125 2.3572513 -0.001953125 4.0019531 L -0.001953125 12.003906 C -0.001953125 13.648608 1.3572381 15 3.0019531 15 L 12.996094 15 C 14.640809 15 16.001953 13.648608 16.001953 12.003906 L 16.001953 4.0019531 C 16.001953 2.3572513 14.640809 0.99609375 12.996094 0.99609375 L 3.0019531 0.99609375 z M 3.0019531 2.9980469 L 12.996094 2.9980469 C 13.567382 2.9980469 14.001953 3.4306388 14.001953 4.0019531 L 14.001953 4.484375 L 8 8.7695312 L 1.9980469 4.4804688 L 1.9980469 4.0019531 C 1.9980469 3.4306388 2.4306649 2.9980469 3.0019531 2.9980469 z M 14.001953 6.9433594 L 14.001953 12.003906 C 14.001953 12.575221 13.567382 13 12.996094 13 L 3.0019531 13 C 2.4306649 13 1.9980469 12.575221 1.9980469 12.003906 L 1.9980469 6.9453125 L 7.4160156 10.814453 C 7.7645529 11.064658 8.2334951 11.064658 8.5820312 10.814453 L 14.001953 6.9433594 z "
         style="color:#000000;font-style:normal;font-variant:normal;font-weight:normal;font-stretch:normal;font-size:medium;line-height:normal;font-family:sans-serif;font-variant-ligatures:normal;font-variant-position:normal;font-variant-caps:normal;font-variant-numeric:normal;font-variant-alternates:normal;font-feature-settings:normal;text-indent:0;text-align:start;text-decoration:none;text-decoration-line:none;text-decoration-style:solid;text-decoration-color:#000000;letter-spacing:normal;word-spacing:normal;text-transform:none;writing-mode:lr-tb;direction:ltr;text-orientation:mixed;dominant-baseline:auto;baseline-shift:baseline;text-anchor:start;white-space:normal;shape-padding:0;clip-rule:nonzero;display:inline;overflow:visible;visibility:visible;opacity:1;isolation:auto;mix-blend-mode:normal;color-interpolation:sRGB;color-interpolation-filters:linearRGB;solid-color:#000000;solid-opacity:1;vector-effect:none;fill:#000000;fill-opacity:1;fill-rule:nonzero;stroke:none;stroke-width:2.0000031;stroke-linecap:round;stroke-linejoin:round;stroke-miterlimit:4;stroke-dasharray:none;stroke-dashoffset:0;stroke-opacity:1;color-rendering:auto;image-rendering:auto;shape-rendering:auto;text-rendering:auto;enable-background:accumulate" />
    </g>
  </g>
</svg>
