<?xml version="1.0" encoding="UTF-8" standalone="no"?>
<svg
   xmlns:dc="http://purl.org/dc/elements/1.1/"
   xmlns:cc="http://creativecommons.org/ns#"
   xmlns:rdf="http://www.w3.org/1999/02/22-rdf-syntax-ns#"
   xmlns:svg="http://www.w3.org/2000/svg"
   xmlns="http://www.w3.org/2000/svg"
   id="svg889"
   version="1.1"
   viewBox="0 0 16 16"
   height="16"
   width="16">
  <defs
     id="defs883" />
  <metadata
     id="metadata886">
    <rdf:RDF>
      <cc:Work
         rdf:about="">
        <dc:format>image/svg+xml</dc:format>
        <dc:type
           rdf:resource="http://purl.org/dc/dcmitype/StillImage" />
        <dc:title></dc:title>
      </cc:Work>
    </rdf:RDF>
  </metadata>
  <g
     style="opacity:1"
     transform="matrix(3.7795335,0,0,3.7795335,30.000041,-1131.5214)"
     id="g2139">
    <path
       id="ellipse961"
       transform="matrix(0.26458292,0,0,0.26458292,-7.9374984,299.38123)"
       d="M 6.0019531 -0.001953125 A 1.0000998 1.0000998 0 0 0 5.2929688 0.29296875 L 3.5878906 1.9980469 L 2.9960938 1.9980469 C 1.3513867 1.9980469 0 3.3592045 0 5.0039062 L 0 12.998047 C 0 14.642749 1.3514093 16.001953 2.9960938 16.001953 L 13 16.001953 C 14.644684 16.001953 15.996094 14.642749 15.996094 12.998047 L 15.996094 5.0039062 C 15.996094 3.3592045 14.644707 1.9980469 13 1.9980469 L 12.416016 1.9980469 L 10.703125 0.29296875 A 1.0000998 1.0000998 0 0 0 10.001953 -0.001953125 L 6.0019531 -0.001953125 z M 8.0019531 6 C 9.6706565 6 11.000013 7.3293072 11 8.9980469 C 10.999997 10.666749 9.6706451 12.001953 8.0019531 12.001953 C 6.3332611 12.001953 4.9980499 10.666749 4.9980469 8.9980469 C 4.998034 7.3293072 6.3332498 6 8.0019531 6 z "
       style="opacity:1;fill:#000000;fill-opacity:1;stroke:none;stroke-width:1.99999964;stroke-linecap:round;stroke-linejoin:round;stroke-miterlimit:4;stroke-dasharray:none;stroke-opacity:1" />
  </g>
</svg>
