<?xml version="1.0" encoding="UTF-8" standalone="no"?>
<svg
   xmlns:dc="http://purl.org/dc/elements/1.1/"
   xmlns:cc="http://creativecommons.org/ns#"
   xmlns:rdf="http://www.w3.org/1999/02/22-rdf-syntax-ns#"
   xmlns:svg="http://www.w3.org/2000/svg"
   xmlns="http://www.w3.org/2000/svg"
   id="svg889"
   version="1.1"
   viewBox="0 0 16 16"
   height="16"
   width="16">
  <defs
     id="defs883" />
  <metadata
     id="metadata886">
    <rdf:RDF>
      <cc:Work
         rdf:about="">
        <dc:format>image/svg+xml</dc:format>
        <dc:type
           rdf:resource="http://purl.org/dc/dcmitype/StillImage" />
        <dc:title></dc:title>
      </cc:Work>
    </rdf:RDF>
  </metadata>
  <g
     style="opacity:1"
     transform="matrix(3.7795335,0,0,3.7795335,30.000041,-1131.5214)"
     id="g2139">
    <path
       id="rect2467-1"
       d="m -6.3496094,299.38086 a 0.26460978,0.26460978 0 0 0 -0.1875,0.0781 l -0.4511718,0.45118 h -0.15625 c -0.435162,0 -0.7929688,0.35976 -0.7929688,0.79492 v 2.11523 c 0,0.43516 0.3578128,0.79492 0.7929688,0.79492 h 2.6464843 c 0.4351559,0 0.7929688,-0.35976 0.7929688,-0.79492 v -2.11523 c 0,-0.43516 -0.3578069,-0.79492 -0.7929688,-0.79492 h -0.1542969 l -0.453125,-0.45118 a 0.26460978,0.26460978 0 0 0 -0.1855468,-0.0781 z m 0.109375,0.5293 h 0.8398438 l 0.4511718,0.45117 a 0.26460978,0.26460978 0 0 0 0.1875,0.0781 h 0.2636719 c 0.1511547,0 0.265625,0.11447 0.265625,0.26563 v 2.11523 c 0,0.15116 -0.1144643,0.26563 -0.265625,0.26563 h -2.6464843 c -0.1511607,0 -0.2636719,-0.11447 -0.2636719,-0.26563 v -2.11523 c 0,-0.15116 0.1125172,-0.26563 0.2636719,-0.26563 h 0.265625 a 0.26460978,0.26460978 0 0 0 0.1875,-0.0781 z"
       style="color:#000000;font-style:normal;font-variant:normal;font-weight:normal;font-stretch:normal;font-size:medium;line-height:normal;font-family:sans-serif;font-variant-ligatures:normal;font-variant-position:normal;font-variant-caps:normal;font-variant-numeric:normal;font-variant-alternates:normal;font-feature-settings:normal;text-indent:0;text-align:start;text-decoration:none;text-decoration-line:none;text-decoration-style:solid;text-decoration-color:#000000;letter-spacing:normal;word-spacing:normal;text-transform:none;writing-mode:lr-tb;direction:ltr;text-orientation:mixed;dominant-baseline:auto;baseline-shift:baseline;text-anchor:start;white-space:normal;shape-padding:0;clip-rule:nonzero;display:inline;overflow:visible;visibility:visible;opacity:1;isolation:auto;mix-blend-mode:normal;color-interpolation:sRGB;color-interpolation-filters:linearRGB;solid-color:#000000;solid-opacity:1;vector-effect:none;fill:#000000;fill-opacity:1;fill-rule:nonzero;stroke:none;stroke-width:0.52916664;stroke-linecap:round;stroke-linejoin:round;stroke-miterlimit:4;stroke-dasharray:none;stroke-dashoffset:0;stroke-opacity:1;color-rendering:auto;image-rendering:auto;shape-rendering:auto;text-rendering:auto;enable-background:accumulate" />
    <path
       id="path881"
       d="m -5.8203125,300.70508 c -0.5813665,0 -1.0585938,0.47527 -1.0585937,1.05664 0,0.58136 0.4772272,1.05859 1.0585937,1.05859 0.5813665,0 1.0585938,-0.47723 1.0585937,-1.05859 0,-0.58137 -0.4772272,-1.05664 -1.0585937,-1.05664 z m 0,0.52734 c 0.2953855,0 0.5292969,0.23392 0.5292969,0.5293 0,0.29538 -0.2339114,0.5293 -0.5292969,0.5293 -0.2953855,0 -0.5292969,-0.23392 -0.5292969,-0.5293 0,-0.29538 0.2339114,-0.5293 0.5292969,-0.5293 z"
       style="color:#000000;font-style:normal;font-variant:normal;font-weight:normal;font-stretch:normal;font-size:medium;line-height:normal;font-family:sans-serif;font-variant-ligatures:normal;font-variant-position:normal;font-variant-caps:normal;font-variant-numeric:normal;font-variant-alternates:normal;font-feature-settings:normal;text-indent:0;text-align:start;text-decoration:none;text-decoration-line:none;text-decoration-style:solid;text-decoration-color:#000000;letter-spacing:normal;word-spacing:normal;text-transform:none;writing-mode:lr-tb;direction:ltr;text-orientation:mixed;dominant-baseline:auto;baseline-shift:baseline;text-anchor:start;white-space:normal;shape-padding:0;clip-rule:nonzero;display:inline;overflow:visible;visibility:visible;opacity:1;isolation:auto;mix-blend-mode:normal;color-interpolation:sRGB;color-interpolation-filters:linearRGB;solid-color:#000000;solid-opacity:1;vector-effect:none;fill:#000000;fill-opacity:1;fill-rule:nonzero;stroke:none;stroke-width:0.52916664;stroke-linecap:round;stroke-linejoin:round;stroke-miterlimit:4;stroke-dasharray:none;stroke-dashoffset:0;stroke-opacity:1;color-rendering:auto;image-rendering:auto;shape-rendering:auto;text-rendering:auto;enable-background:accumulate" />
  </g>
</svg>
