<?xml version="1.0" encoding="UTF-8" standalone="no"?>
<svg
   xmlns:dc="http://purl.org/dc/elements/1.1/"
   xmlns:cc="http://creativecommons.org/ns#"
   xmlns:rdf="http://www.w3.org/1999/02/22-rdf-syntax-ns#"
   xmlns:svg="http://www.w3.org/2000/svg"
   xmlns="http://www.w3.org/2000/svg"
   id="svg889"
   version="1.1"
   viewBox="0 0 16 16"
   height="16"
   width="16">
  <defs
     id="defs883" />
  <metadata
     id="metadata886">
    <rdf:RDF>
      <cc:Work
         rdf:about="">
        <dc:format>image/svg+xml</dc:format>
        <dc:type
           rdf:resource="http://purl.org/dc/dcmitype/StillImage" />
        <dc:title></dc:title>
      </cc:Work>
    </rdf:RDF>
  </metadata>
  <g
     style="opacity:1"
     transform="matrix(3.7795335,0,0,3.7795335,30.000041,-1131.5214)"
     id="g2139">
    <g
       style="opacity:1"
       transform="matrix(0.99927756,0,0,0.99927756,-12.165103,6.8287564)"
       id="g2116" />
    <g
       style="opacity:1"
       transform="matrix(1.0003135,0,0,1.0003135,-0.78883659,8.7755168)"
       id="g2130" />
    <g
       style="opacity:1"
       transform="matrix(1.0003135,0,0,1.0003135,-6.0855013,0.43545705)"
       id="g2145" />
    <g
       style="opacity:1"
       transform="matrix(1.0003135,0,0,1.0003135,-9.3276632,-8.8290983)"
       id="g2167">
      <path
         id="rect953"
         transform="matrix(0.2645,0,0,0.2645,1.3897291,308.11374)"
         d="M 8 -0.001953125 C 5.8004941 -0.001953125 3.9980465 1.792679 3.9980469 3.9921875 L 3.9980469 5.1835938 C 2.8403302 5.6009531 1.9980469 6.703521 1.9980469 7.9960938 L 1.9980469 13.001953 C 1.9980469 14.647208 3.3567323 16 5.0019531 16 L 10.998047 16 C 12.643268 16 14.003906 14.647208 14.003906 13.001953 L 14.003906 7.9960938 C 14.003906 6.703521 13.15967 5.6009531 12.001953 5.1835938 L 12.001953 3.9921875 C 12.001953 1.792679 10.199506 -0.001953125 8 -0.001953125 z M 8 2 C 9.125541 2 10.001953 2.8666298 10.001953 3.9921875 L 10.001953 4.9980469 L 6 4.9980469 L 6 3.9921875 C 5.9999996 2.8666298 6.8744593 2 8 2 z M 5.0019531 6.9980469 L 10.998047 6.9980469 C 11.569524 6.9980469 12.001953 7.4246004 12.001953 7.9960938 L 12.001953 13.001953 C 12.001953 13.573447 11.569524 13.998047 10.998047 13.998047 L 5.0019531 13.998047 C 4.430476 13.998047 3.9980469 13.573447 3.9980469 13.001953 L 3.9980469 7.9960938 C 3.9980469 7.4246004 4.430476 6.9980469 5.0019531 6.9980469 z "
         style="color:#000000;font-style:normal;font-variant:normal;font-weight:normal;font-stretch:normal;font-size:medium;line-height:normal;font-family:sans-serif;font-variant-ligatures:normal;font-variant-position:normal;font-variant-caps:normal;font-variant-numeric:normal;font-variant-alternates:normal;font-feature-settings:normal;text-indent:0;text-align:start;text-decoration:none;text-decoration-line:none;text-decoration-style:solid;text-decoration-color:#000000;letter-spacing:normal;word-spacing:normal;text-transform:none;writing-mode:lr-tb;direction:ltr;text-orientation:mixed;dominant-baseline:auto;baseline-shift:baseline;text-anchor:start;white-space:normal;shape-padding:0;clip-rule:nonzero;display:inline;overflow:visible;visibility:visible;opacity:1;isolation:auto;mix-blend-mode:normal;color-interpolation:sRGB;color-interpolation-filters:linearRGB;solid-color:#000000;solid-opacity:1;vector-effect:none;fill:#000000;fill-opacity:1;fill-rule:nonzero;stroke:none;stroke-width:2.00063014;stroke-linecap:round;stroke-linejoin:round;stroke-miterlimit:4;stroke-dasharray:none;stroke-dashoffset:0;stroke-opacity:1;color-rendering:auto;image-rendering:auto;shape-rendering:auto;text-rendering:auto;enable-background:accumulate" />
    </g>
  </g>
</svg>
