<?xml version="1.0" encoding="UTF-8" standalone="no"?>
<svg
   xmlns:dc="http://purl.org/dc/elements/1.1/"
   xmlns:cc="http://creativecommons.org/ns#"
   xmlns:rdf="http://www.w3.org/1999/02/22-rdf-syntax-ns#"
   xmlns:svg="http://www.w3.org/2000/svg"
   xmlns="http://www.w3.org/2000/svg"
   id="svg889"
   version="1.1"
   viewBox="0 0 16 16"
   height="16"
   width="16">
  <defs
     id="defs883" />
  <metadata
     id="metadata886">
    <rdf:RDF>
      <cc:Work
         rdf:about="">
        <dc:format>image/svg+xml</dc:format>
        <dc:type
           rdf:resource="http://purl.org/dc/dcmitype/StillImage" />
        <dc:title></dc:title>
      </cc:Work>
    </rdf:RDF>
  </metadata>
  <g
     style="opacity:1"
     transform="matrix(3.7795335,0,0,3.7795335,30.000041,-1131.5214)"
     id="g2139">
    <g
       style="opacity:1"
       transform="matrix(0.99927756,0,0,0.99927756,-12.165103,6.8287564)"
       id="g2116" />
    <g
       style="opacity:1"
       transform="matrix(1.0003135,0,0,1.0003135,-0.78883659,8.7755168)"
       id="g2130" />
    <g
       style="opacity:1"
       transform="matrix(1.0003135,0,0,1.0003135,0,4.5371186)"
       id="g2135">
      <path
         id="path2459"
         transform="matrix(0.2645,0,0,0.2645,-7.9350107,294.75171)"
         d="M 3.9863281 3.9882812 A 1.0004152 1.0004152 0 0 0 3.2988281 4.2910156 L 0.29296875 7.2890625 A 1.0004152 1.0004152 0 0 0 0.28515625 8.6992188 L 3.2832031 11.705078 A 1.0004152 1.0004152 0 1 0 4.7011719 10.294922 L 2.4121094 7.9980469 L 4.7089844 5.7089844 A 1.0004152 1.0004152 0 0 0 3.9863281 3.9882812 z M 7.9882812 3.9882812 A 1.0004152 1.0004152 0 0 0 7.3007812 4.2910156 L 4.2890625 7.2890625 A 1.0004152 1.0004152 0 0 0 4.2890625 8.6992188 L 7.2871094 11.705078 A 1.0004152 1.0004152 0 1 0 8.703125 10.294922 L 7.4121094 8.9980469 L 11.998047 8.9882812 C 13.115763 8.985786 13.973016 9.8668545 13.984375 11.009766 L 13.998047 12.509766 A 1.0004152 1.0004152 0 1 0 15.992188 12.494141 L 15.976562 10.988281 C 15.954861 8.8063909 14.197578 6.981451 11.990234 6.9863281 L 7.4179688 6.9980469 L 8.7109375 5.7089844 A 1.0004152 1.0004152 0 0 0 7.9882812 3.9882812 z "
         style="color:#000000;font-style:normal;font-variant:normal;font-weight:normal;font-stretch:normal;font-size:medium;line-height:normal;font-family:sans-serif;font-variant-ligatures:normal;font-variant-position:normal;font-variant-caps:normal;font-variant-numeric:normal;font-variant-alternates:normal;font-feature-settings:normal;text-indent:0;text-align:start;text-decoration:none;text-decoration-line:none;text-decoration-style:solid;text-decoration-color:#000000;letter-spacing:normal;word-spacing:normal;text-transform:none;writing-mode:lr-tb;direction:ltr;text-orientation:mixed;dominant-baseline:auto;baseline-shift:baseline;text-anchor:start;white-space:normal;shape-padding:0;clip-rule:nonzero;display:inline;overflow:visible;visibility:visible;opacity:1;isolation:auto;mix-blend-mode:normal;color-interpolation:sRGB;color-interpolation-filters:linearRGB;solid-color:#000000;solid-opacity:1;vector-effect:none;fill:#000000;fill-opacity:1;fill-rule:nonzero;stroke:none;stroke-width:2.00063038;stroke-linecap:round;stroke-linejoin:round;stroke-miterlimit:4;stroke-dasharray:none;stroke-dashoffset:0;stroke-opacity:1;color-rendering:auto;image-rendering:auto;shape-rendering:auto;text-rendering:auto;enable-background:accumulate" />
    </g>
  </g>
</svg>
