<?xml version="1.0" encoding="UTF-8" standalone="no"?>
<svg
   xmlns:dc="http://purl.org/dc/elements/1.1/"
   xmlns:cc="http://creativecommons.org/ns#"
   xmlns:rdf="http://www.w3.org/1999/02/22-rdf-syntax-ns#"
   xmlns:svg="http://www.w3.org/2000/svg"
   xmlns="http://www.w3.org/2000/svg"
   xmlns:sodipodi="http://sodipodi.sourceforge.net/DTD/sodipodi-0.dtd"
   xmlns:inkscape="http://www.inkscape.org/namespaces/inkscape"
   width="16"
   height="16"
   viewBox="0 0 16 16"
   version="1.1"
   id="svg889"
   sodipodi:docname="user-line.svg"
   inkscape:version="0.92.3 (2405546, 2018-03-11)">
  <sodipodi:namedview
     pagecolor="#ffffff"
     bordercolor="#666666"
     borderopacity="1"
     objecttolerance="10"
     gridtolerance="10"
     guidetolerance="10"
     inkscape:pageopacity="0"
     inkscape:pageshadow="2"
     inkscape:window-width="640"
     inkscape:window-height="480"
     id="namedview883"
     showgrid="true"
     inkscape:zoom="32"
     inkscape:cx="8.8602069"
     inkscape:cy="4.9088186"
     inkscape:current-layer="g2139"
     showguides="false">
    <inkscape:grid
       type="xygrid"
       id="grid1428" />
  </sodipodi:namedview>
  <defs
     id="defs883" />
  <metadata
     id="metadata886">
    <rdf:RDF>
      <cc:Work
         rdf:about="">
        <dc:format>image/svg+xml</dc:format>
        <dc:type
           rdf:resource="http://purl.org/dc/dcmitype/StillImage" />
        <dc:title></dc:title>
      </cc:Work>
    </rdf:RDF>
  </metadata>
  <g
     id="g2139"
     transform="matrix(3.7795335,0,0,3.7795335,30.000041,-1131.5214)"
     style="opacity:1">
    <g
       id="g2116"
       transform="matrix(0.99927756,0,0,0.99927756,-12.165103,6.8287564)"
       style="opacity:1" />
    <g
       id="g2154"
       transform="matrix(1.0003135,0,0,1.0003135,1.9333557,-5.8301007)"
       style="opacity:1">
      <path
         style="color:#000000;font-style:normal;font-variant:normal;font-weight:normal;font-stretch:normal;font-size:medium;line-height:normal;font-family:sans-serif;font-variant-ligatures:normal;font-variant-position:normal;font-variant-caps:normal;font-variant-numeric:normal;font-variant-alternates:normal;font-feature-settings:normal;text-indent:0;text-align:start;text-decoration:none;text-decoration-line:none;text-decoration-style:solid;text-decoration-color:#000000;letter-spacing:normal;word-spacing:normal;text-transform:none;writing-mode:lr-tb;direction:ltr;text-orientation:mixed;dominant-baseline:auto;baseline-shift:baseline;text-anchor:start;white-space:normal;shape-padding:0;clip-rule:nonzero;display:inline;overflow:visible;visibility:visible;opacity:1;isolation:auto;mix-blend-mode:normal;color-interpolation:sRGB;color-interpolation-filters:linearRGB;solid-color:#000000;solid-opacity:1;vector-effect:none;fill:#000000;fill-opacity:1;fill-rule:nonzero;stroke:none;stroke-width:2.00063014;stroke-linecap:round;stroke-linejoin:round;stroke-miterlimit:4;stroke-dasharray:none;stroke-dashoffset:0;stroke-opacity:1;color-rendering:auto;image-rendering:auto;shape-rendering:auto;text-rendering:auto;enable-background:accumulate"
         d="M 8 0.99609375 C 5.8020132 0.99609375 3.9960938 2.8000506 3.9960938 4.9980469 C 3.9960938 7.1960431 5.8020132 9 8 9 C 10.197986 9 12.001953 7.1960431 12.001953 4.9980469 C 12.001953 2.8000506 10.197986 0.99609375 8 0.99609375 z M 8 2.9960938 C 9.1167656 2.9960938 10 3.8812983 10 4.9980469 C 10 6.1147955 9.1167656 6.9980469 8 6.9980469 C 6.883234 6.9980469 5.9980469 6.1147955 5.9980469 4.9980469 C 5.9980469 3.8812983 6.883234 2.9960938 8 2.9960938 z M 4.9941406 9.9960938 C 2.7947338 9.9960938 1 11.798652 1 13.998047 A 1.0005611 1.0005611 0 1 0 3 13.998047 C 3 12.872376 3.8685002 11.998047 4.9941406 11.998047 L 10.998047 11.998047 C 12.123687 11.998047 12.998047 12.872376 12.998047 13.998047 A 1.0005613 1.0005613 0 1 0 15 13.998047 C 15 11.798652 13.197454 9.9960938 10.998047 9.9960938 L 4.9941406 9.9960938 z "
         transform="matrix(0.2645,0,0,0.2645,-9.8677605,305.11568)"
         id="path932" />
    </g>
  </g>
</svg>
