<?xml version="1.0" encoding="UTF-8" standalone="no"?>
<svg
   xmlns:dc="http://purl.org/dc/elements/1.1/"
   xmlns:cc="http://creativecommons.org/ns#"
   xmlns:rdf="http://www.w3.org/1999/02/22-rdf-syntax-ns#"
   xmlns:svg="http://www.w3.org/2000/svg"
   xmlns="http://www.w3.org/2000/svg"
   id="svg889"
   version="1.1"
   viewBox="0 0 16 16"
   height="16"
   width="16">
  <defs
     id="defs883" />
  <metadata
     id="metadata886">
    <rdf:RDF>
      <cc:Work
         rdf:about="">
        <dc:format>image/svg+xml</dc:format>
        <dc:type
           rdf:resource="http://purl.org/dc/dcmitype/StillImage" />
        <dc:title></dc:title>
      </cc:Work>
    </rdf:RDF>
  </metadata>
  <g
     style="opacity:1"
     transform="matrix(3.7795335,0,0,3.7795335,30.000041,-1131.5214)"
     id="g2139">
    <g
       style="opacity:1"
       transform="matrix(0.99927756,0,0,0.99927756,-12.165103,6.8287564)"
       id="g2116" />
    <path
       id="circle937"
       transform="matrix(0.26458292,0,0,0.26458292,-7.9374984,299.38123)"
       d="M 8 1 A 3.9999993 3.9999705 0 0 0 4 5 A 3.9999993 3.9999705 0 0 0 8 9 A 3.9999993 3.9999705 0 0 0 12 5 A 3.9999993 3.9999705 0 0 0 8 1 z M 4.9980469 10.001953 C 2.7986982 10.001953 0.99609375 11.802605 0.99609375 14.001953 A 0.99772008 0.99772008 0 0 0 1.9921875 14.998047 L 14.003906 14.998047 A 0.99772008 0.99772008 0 0 0 15 14.001953 C 15 11.802605 13.199352 10.001953 11 10.001953 L 4.9980469 10.001953 z "
       style="opacity:1;fill:#000000;fill-opacity:1;stroke:none;stroke-width:2.0006299;stroke-linecap:round;stroke-linejoin:round;stroke-miterlimit:4;stroke-dasharray:none;stroke-opacity:1" />
  </g>
</svg>
