<?xml version="1.0" encoding="UTF-8" standalone="no"?>
<svg
   xmlns:dc="http://purl.org/dc/elements/1.1/"
   xmlns:cc="http://creativecommons.org/ns#"
   xmlns:rdf="http://www.w3.org/1999/02/22-rdf-syntax-ns#"
   xmlns:svg="http://www.w3.org/2000/svg"
   xmlns="http://www.w3.org/2000/svg"
   id="svg889"
   version="1.1"
   viewBox="0 0 16 16"
   height="16"
   width="16">
  <defs
     id="defs883" />
  <metadata
     id="metadata886">
    <rdf:RDF>
      <cc:Work
         rdf:about="">
        <dc:format>image/svg+xml</dc:format>
        <dc:type
           rdf:resource="http://purl.org/dc/dcmitype/StillImage" />
        <dc:title></dc:title>
      </cc:Work>
    </rdf:RDF>
  </metadata>
  <g
     style="opacity:1"
     transform="matrix(3.7795335,0,0,3.7795335,30.000041,-1131.5214)"
     id="g2139">
    <g
       style="opacity:1"
       transform="matrix(0.99927756,0,0,0.99927756,-12.165103,6.8287564)"
       id="g2116" />
    <g
       style="opacity:1"
       transform="matrix(1.0003135,0,0,1.0003135,-0.78883659,8.7755168)"
       id="g2130" />
    <g
       style="opacity:1"
       transform="matrix(1.0003135,0,0,1.0003135,-6.0855013,0.43545705)"
       id="g2145" />
    <g
       style="opacity:1"
       transform="matrix(1.0003135,0,0,1.0003135,-9.3276632,-8.8290983)"
       id="g2167" />
    <path
       id="rect989"
       d="m -6.8803513,299.38093 c -0.581617,0 -1.057114,0.4755 -1.057114,1.05713 v 2.11784 c 0,0.58161 0.4747146,1.05866 1.057114,1.05866 h 2.1178479 c 0.5823994,0 1.056597,-0.47705 1.056597,-1.05866 v -2.11784 c 0,-0.58163 -0.4749798,-1.05713 -1.056597,-1.05713 z m 1.0550469,0.78935 a 0.26469277,0.26469277 0 0 1 0.2693192,0.26778 v 1.05866 a 0.2647314,0.2647314 0 1 1 -0.5293328,0 v -1.05866 a 0.26469277,0.26469277 0 0 1 0.2600136,-0.26778 z m 0.0041,2.12096 a 0.26466626,0.26466626 0 0 1 0.2646657,0.26466 0.26466626,0.26466626 0 0 1 -0.2646657,0.26466 0.26466626,0.26466626 0 0 1 -0.2646671,-0.26466 0.26466626,0.26466626 0 0 1 0.2646671,-0.26466 z"
       style="opacity:1;fill:#000000;fill-opacity:1;stroke:none;stroke-width:0.52933252;stroke-linecap:round;stroke-linejoin:round;stroke-miterlimit:4;stroke-dasharray:none;stroke-opacity:1" />
  </g>
</svg>
