<?xml version="1.0" encoding="UTF-8" standalone="no"?>
<svg
   xmlns:dc="http://purl.org/dc/elements/1.1/"
   xmlns:cc="http://creativecommons.org/ns#"
   xmlns:rdf="http://www.w3.org/1999/02/22-rdf-syntax-ns#"
   xmlns:svg="http://www.w3.org/2000/svg"
   xmlns="http://www.w3.org/2000/svg"
   id="svg889"
   version="1.1"
   viewBox="0 0 16 16"
   height="16"
   width="16">
  <defs
     id="defs883" />
  <metadata
     id="metadata886">
    <rdf:RDF>
      <cc:Work
         rdf:about="">
        <dc:format>image/svg+xml</dc:format>
        <dc:type
           rdf:resource="http://purl.org/dc/dcmitype/StillImage" />
        <dc:title></dc:title>
      </cc:Work>
    </rdf:RDF>
  </metadata>
  <g
     style="opacity:1"
     transform="matrix(3.7795335,0,0,3.7795335,30.000041,-1131.5214)"
     id="g2139">
    <g
       style="opacity:1"
       transform="matrix(0.99927756,0,0,0.99927756,-12.165103,6.8287564)"
       id="g2116" />
    <g
       style="opacity:1"
       transform="matrix(1.0003135,0,0,1.0003135,-0.78883659,8.7755168)"
       id="g2130" />
    <g
       style="opacity:1"
       transform="matrix(1.0003135,0,0,1.0003135,-6.0855013,0.43545705)"
       id="g2145" />
    <g
       style="opacity:1"
       transform="matrix(1.0003135,0,0,1.0003135,-9.3276632,-8.8290983)"
       id="g2167" />
    <g
       style="opacity:1"
       transform="matrix(1.0003135,0,0,1.0003135,-11.90816,-2.2124312)"
       id="g2163">
      <path
         id="rect2467-0"
         transform="matrix(0.2645,0,0,0.2645,3.9694172,301.49914)"
         d="M 4 -0.00390625 C 1.8006045 -0.00390625 -0.001953125 1.7986518 -0.001953125 3.9980469 L -0.001953125 12.001953 C -0.001953125 14.201348 1.8006045 15.998047 4 15.998047 L 12.003906 15.998047 C 14.203302 15.998047 16 14.201348 16 12.001953 L 16 3.9980469 C 16 1.7986518 14.203302 -0.00390625 12.003906 -0.00390625 L 4 -0.00390625 z M 4 1.9960938 L 12.003906 1.9960938 C 13.129558 1.9960938 14.005859 2.8724136 14.005859 3.9980469 L 14.005859 12.001953 C 14.005859 13.127586 13.129558 13.996094 12.003906 13.996094 L 4 13.996094 C 2.8743478 13.996094 1.9980469 13.127586 1.9980469 12.001953 L 1.9980469 3.9980469 C 1.9980469 2.8724136 2.8743478 1.9960938 4 1.9960938 z M 7.9863281 2.9785156 A 1.0004152 1.0004152 0 0 0 6.9980469 3.9980469 L 6.9980469 8 A 1.0005613 1.0005613 0 1 0 8.9980469 8 L 8.9980469 3.9980469 A 1.0004152 1.0004152 0 0 0 7.9863281 2.9785156 z M 8 10.998047 A 1.000315 1.000315 0 0 0 7 11.998047 A 1.000315 1.000315 0 0 0 8 13 A 1.000315 1.000315 0 0 0 9 11.998047 A 1.000315 1.000315 0 0 0 8 10.998047 z "
         style="color:#000000;font-style:normal;font-variant:normal;font-weight:normal;font-stretch:normal;font-size:medium;line-height:normal;font-family:sans-serif;font-variant-ligatures:normal;font-variant-position:normal;font-variant-caps:normal;font-variant-numeric:normal;font-variant-alternates:normal;font-feature-settings:normal;text-indent:0;text-align:start;text-decoration:none;text-decoration-line:none;text-decoration-style:solid;text-decoration-color:#000000;letter-spacing:normal;word-spacing:normal;text-transform:none;writing-mode:lr-tb;direction:ltr;text-orientation:mixed;dominant-baseline:auto;baseline-shift:baseline;text-anchor:start;white-space:normal;shape-padding:0;clip-rule:nonzero;display:inline;overflow:visible;visibility:visible;opacity:1;isolation:auto;mix-blend-mode:normal;color-interpolation:sRGB;color-interpolation-filters:linearRGB;solid-color:#000000;solid-opacity:1;vector-effect:none;fill:#000000;fill-opacity:1;fill-rule:nonzero;stroke:none;stroke-width:2.0006299;stroke-linecap:round;stroke-linejoin:round;stroke-miterlimit:4;stroke-dasharray:none;stroke-dashoffset:0;stroke-opacity:1;color-rendering:auto;image-rendering:auto;shape-rendering:auto;text-rendering:auto;enable-background:accumulate" />
    </g>
  </g>
</svg>
