<?xml version="1.0" encoding="UTF-8" standalone="no"?>
<svg
   xmlns:dc="http://purl.org/dc/elements/1.1/"
   xmlns:cc="http://creativecommons.org/ns#"
   xmlns:rdf="http://www.w3.org/1999/02/22-rdf-syntax-ns#"
   xmlns:svg="http://www.w3.org/2000/svg"
   xmlns="http://www.w3.org/2000/svg"
   width="24"
   height="24"
   viewBox="0 0 24 24"
   version="1.1"
   id="svg889">
  <defs
     id="defs883" />
  <metadata
     id="metadata886">
    <rdf:RDF>
      <cc:Work
         rdf:about="">
        <dc:format>image/svg+xml</dc:format>
        <dc:type
           rdf:resource="http://purl.org/dc/dcmitype/StillImage" />
        <dc:title></dc:title>
      </cc:Work>
    </rdf:RDF>
  </metadata>
  <path
     id="path1497"
     d="M 11.982422,0.99414062 A 1.0004156,1.0004156 0 0 0 11.291016,1.2871094 L 1.2871094,11.289062 a 1.0004156,1.0004156 0 0 0 0.7070312,1.708985 h 1 V 22 a 1.0004156,1.0004156 0 0 0 1,1 h 5.0019532 a 1.0004156,1.0004156 0 0 0 1,-1 V 14.998047 H 13.998047 V 22 a 1.0004156,1.0004156 0 0 0 1,1 H 20 a 1.0004156,1.0004156 0 0 0 1,-1 v -9.001953 h 1 a 1.0004156,1.0004156 0 0 0 0.707031,-1.708985 L 12.705078,1.2871094 A 1.0004156,1.0004156 0 0 0 11.982422,0.99414062 Z M 11.998047,3.4082031 19.650391,11.0625 A 1.0004156,1.0004156 0 0 0 19,11.996094 V 21 h -3.001953 v -7.001953 a 1.0004156,1.0004156 0 0 0 -1,-1 H 8.9960938 a 1.0004156,1.0004156 0 0 0 -1,1 V 21 h -3 V 11.996094 A 1.0004156,1.0004156 0 0 0 4.3457031,11.060547 Z"
     style="color:#000000;font-style:normal;font-variant:normal;font-weight:normal;font-stretch:normal;font-size:medium;line-height:normal;font-family:sans-serif;font-variant-ligatures:normal;font-variant-position:normal;font-variant-caps:normal;font-variant-numeric:normal;font-variant-alternates:normal;font-feature-settings:normal;text-indent:0;text-align:start;text-decoration:none;text-decoration-line:none;text-decoration-style:solid;text-decoration-color:#000000;letter-spacing:normal;word-spacing:normal;text-transform:none;writing-mode:lr-tb;direction:ltr;text-orientation:mixed;dominant-baseline:auto;baseline-shift:baseline;text-anchor:start;white-space:normal;shape-padding:0;clip-rule:nonzero;display:inline;overflow:visible;visibility:visible;opacity:1;isolation:auto;mix-blend-mode:normal;color-interpolation:sRGB;color-interpolation-filters:linearRGB;solid-color:#000000;solid-opacity:1;vector-effect:none;fill:#000000;fill-opacity:1;fill-rule:nonzero;stroke:none;stroke-width:2.00063109;stroke-linecap:round;stroke-linejoin:round;stroke-miterlimit:4;stroke-dasharray:none;stroke-dashoffset:0;stroke-opacity:1;color-rendering:auto;image-rendering:auto;shape-rendering:auto;text-rendering:auto;enable-background:accumulate" />
</svg>
