<?xml version="1.0" encoding="UTF-8" standalone="no"?>
<svg
   xmlns:dc="http://purl.org/dc/elements/1.1/"
   xmlns:cc="http://creativecommons.org/ns#"
   xmlns:rdf="http://www.w3.org/1999/02/22-rdf-syntax-ns#"
   xmlns:svg="http://www.w3.org/2000/svg"
   xmlns="http://www.w3.org/2000/svg"
   id="svg889"
   version="1.1"
   viewBox="0 0 24 24"
   height="24"
   width="24">
  <defs
     id="defs883" />
  <metadata
     id="metadata886">
    <rdf:RDF>
      <cc:Work
         rdf:about="">
        <dc:format>image/svg+xml</dc:format>
        <dc:type
           rdf:resource="http://purl.org/dc/dcmitype/StillImage" />
        <dc:title></dc:title>
      </cc:Work>
    </rdf:RDF>
  </metadata>
  <g
     transform="matrix(3.78072,0,0,3.78072,-64.021141,-1098.8728)"
     id="g2183" />
  <g
     transform="matrix(3.78072,0,0,3.78072,-65.014366,-1142.8861)"
     id="g2199">
    <path
       id="rect2467"
       transform="matrix(0.26449988,0,0,0.26449988,17.196292,302.29324)"
       d="M 6.0214844 3.9941406 C 4.3762549 3.9941406 3.015625 5.3547819 3.015625 7 L 3.015625 16.998047 C 3.015625 18.643303 4.3762549 20.001953 6.0214844 20.001953 L 17.998047 20.001953 C 19.64328 20.001953 20.996094 18.643303 20.996094 16.998047 L 20.996094 7 C 20.996094 5.3547819 19.64328 3.9941406 17.998047 3.9941406 L 6.0214844 3.9941406 z M 6.0214844 5.9941406 L 17.998047 5.9941406 C 18.569514 5.9941406 19.003906 6.4285064 19.003906 7 L 19.003906 8.4492188 L 12.009766 12.818359 L 5.0175781 8.4511719 L 5.0175781 7 C 5.0175781 6.4285064 5.4500172 5.9941406 6.0214844 5.9941406 z M 19.003906 10.802734 L 19.003906 16.998047 C 19.003906 17.569578 18.569514 18.001953 17.998047 18.001953 L 6.0214844 18.001953 C 5.4500172 18.001953 5.0175781 17.569578 5.0175781 16.998047 L 5.0175781 10.806641 L 11.478516 14.847656 A 0.99978501 0.99978501 0 0 0 12.542969 14.847656 L 19.003906 10.802734 z "
       style="color:#000000;font-style:normal;font-variant:normal;font-weight:normal;font-stretch:normal;font-size:medium;line-height:normal;font-family:sans-serif;font-variant-ligatures:normal;font-variant-position:normal;font-variant-caps:normal;font-variant-numeric:normal;font-variant-alternates:normal;font-feature-settings:normal;text-indent:0;text-align:start;text-decoration:none;text-decoration-line:none;text-decoration-style:solid;text-decoration-color:#000000;letter-spacing:normal;word-spacing:normal;text-transform:none;writing-mode:lr-tb;direction:ltr;text-orientation:mixed;dominant-baseline:auto;baseline-shift:baseline;text-anchor:start;white-space:normal;shape-padding:0;clip-rule:nonzero;display:inline;overflow:visible;visibility:visible;opacity:1;isolation:auto;mix-blend-mode:normal;color-interpolation:sRGB;color-interpolation-filters:linearRGB;solid-color:#000000;solid-opacity:1;vector-effect:none;fill:#000000;fill-opacity:1;fill-rule:nonzero;stroke:none;stroke-width:2.00063086;stroke-linecap:round;stroke-linejoin:round;stroke-miterlimit:4;stroke-dasharray:none;stroke-dashoffset:0;stroke-opacity:1;color-rendering:auto;image-rendering:auto;shape-rendering:auto;text-rendering:auto;enable-background:accumulate" />
  </g>
</svg>
