<?xml version="1.0" encoding="UTF-8" standalone="no"?>
<svg
   xmlns:dc="http://purl.org/dc/elements/1.1/"
   xmlns:cc="http://creativecommons.org/ns#"
   xmlns:rdf="http://www.w3.org/1999/02/22-rdf-syntax-ns#"
   xmlns:svg="http://www.w3.org/2000/svg"
   xmlns="http://www.w3.org/2000/svg"
   id="svg889"
   version="1.1"
   viewBox="0 0 24 24"
   height="24"
   width="24">
  <defs
     id="defs883" />
  <metadata
     id="metadata886">
    <rdf:RDF>
      <cc:Work
         rdf:about="">
        <dc:format>image/svg+xml</dc:format>
        <dc:type
           rdf:resource="http://purl.org/dc/dcmitype/StillImage" />
        <dc:title></dc:title>
      </cc:Work>
    </rdf:RDF>
  </metadata>
  <g
     transform="matrix(3.78072,0,0,3.78072,-64.021141,-1098.8728)"
     id="g2183" />
  <g
     transform="matrix(3.78072,0,0,3.78072,-65.014366,-1142.8861)"
     id="g2199" />
  <g
     transform="matrix(3.78072,0,0,3.78072,-93.371328,-1134.9413)"
     id="g2195">
    <path
       id="rect834"
       transform="matrix(0.26449988,0,0,0.26449988,24.696705,300.19184)"
       d="M 12.001953 2.9960938 C 8.6990632 2.9960938 5.9980696 5.6970874 5.9980469 9 L 5.9980469 12.587891 L 5.2890625 13.296875 A 1.0004155 1.0004155 0 0 0 5.0019531 14.005859 L 5.0019531 17.003906 A 1.0004155 1.0004155 0 0 0 5.9980469 18.001953 L 18.003906 18.001953 A 1.0004155 1.0004155 0 0 0 19.001953 17.003906 L 19.001953 14.005859 A 1.0004155 1.0004155 0 0 0 18.707031 13.296875 L 18.003906 12.587891 L 18.003906 9 C 18.00388 5.6970874 15.304843 2.9960938 12.001953 2.9960938 z M 12.001953 4.9980469 C 14.223614 4.9980469 16.003887 6.7782977 16.003906 9 L 16.003906 13.001953 A 1.0004155 1.0004155 0 0 0 16.291016 13.710938 L 17 14.419922 L 17 16.007812 L 6.9941406 16.007812 L 6.9941406 14.419922 L 7.703125 13.710938 A 1.0004155 1.0004155 0 0 0 8 13.001953 L 8 9 C 8.0000151 6.7782977 9.7802924 4.9980469 12.001953 4.9980469 z M 11 19.003906 C 10.445825 19.003906 10 19.451685 10 20.005859 C 10 20.560034 10.445825 21.005859 11 21.005859 L 13 21.005859 C 13.554175 21.005859 14 20.560034 14 20.005859 C 14 19.451685 13.554175 19.003906 13 19.003906 L 11 19.003906 z "
       style="opacity:1;fill:#000000;fill-opacity:1;stroke:none;stroke-width:2.00063086;stroke-linecap:round;stroke-linejoin:round;stroke-miterlimit:4;stroke-dasharray:none;stroke-opacity:1" />
  </g>
</svg>
