<?xml version="1.0" encoding="UTF-8" standalone="no"?>
<svg
   xmlns:dc="http://purl.org/dc/elements/1.1/"
   xmlns:cc="http://creativecommons.org/ns#"
   xmlns:rdf="http://www.w3.org/1999/02/22-rdf-syntax-ns#"
   xmlns:svg="http://www.w3.org/2000/svg"
   xmlns="http://www.w3.org/2000/svg"
   id="svg889"
   version="1.1"
   viewBox="0 0 24 24"
   height="24"
   width="24">
  <defs
     id="defs883" />
  <metadata
     id="metadata886">
    <rdf:RDF>
      <cc:Work
         rdf:about="">
        <dc:format>image/svg+xml</dc:format>
        <dc:type
           rdf:resource="http://purl.org/dc/dcmitype/StillImage" />
        <dc:title></dc:title>
      </cc:Work>
    </rdf:RDF>
  </metadata>
  <g
     transform="matrix(3.78072,0,0,3.78072,-64.021141,-1098.8728)"
     id="g2183" />
  <g
     transform="matrix(3.78072,0,0,3.78072,-65.014366,-1142.8861)"
     id="g2199" />
  <g
     transform="matrix(3.78072,0,0,3.78072,-93.371328,-1134.9413)"
     id="g2195">
    <path
       id="rect834"
       transform="matrix(0.26449988,0,0,0.26449988,24.696705,300.19184)"
       d="M 12.001953,2.9960938 C 8.6990632,2.9960938 5.9980696,5.6970874 5.9980469,9 v 3.587891 l -0.7089844,0.708984 c -0.1858392,0.188966 -0.289099,0.443955 -0.2871094,0.708984 v 2.998047 c 0.0013,0.549907 0.4461909,0.995673 0.9960938,0.998047 H 18.003906 c 0.550666,-0.0013 0.996745,-0.447381 0.998047,-0.998047 v -2.998047 c -8.5e-5,-0.26615 -0.10622,-0.521295 -0.294922,-0.708984 L 18.003906,12.587891 V 9 C 18.00388,5.6970874 15.304843,2.9960938 12.001953,2.9960938 Z M 11,19.003906 c -0.554175,0 -1,0.447779 -1,1.001953 0,0.554175 0.445825,1 1,1 h 2 c 0.554175,0 1,-0.445825 1,-1 0,-0.554174 -0.445825,-1.001953 -1,-1.001953 z"
       style="opacity:1;fill:#000000;fill-opacity:1;stroke:none;stroke-width:2.00063086;stroke-linecap:round;stroke-linejoin:round;stroke-miterlimit:4;stroke-dasharray:none;stroke-opacity:1" />
  </g>
</svg>
