<?xml version="1.0" encoding="UTF-8" standalone="no"?>
<svg
   xmlns:dc="http://purl.org/dc/elements/1.1/"
   xmlns:cc="http://creativecommons.org/ns#"
   xmlns:rdf="http://www.w3.org/1999/02/22-rdf-syntax-ns#"
   xmlns:svg="http://www.w3.org/2000/svg"
   xmlns="http://www.w3.org/2000/svg"
   id="svg889"
   version="1.1"
   viewBox="0 0 24 24"
   height="24"
   width="24">
  <defs
     id="defs883" />
  <metadata
     id="metadata886">
    <rdf:RDF>
      <cc:Work
         rdf:about="">
        <dc:format>image/svg+xml</dc:format>
        <dc:type
           rdf:resource="http://purl.org/dc/dcmitype/StillImage" />
        <dc:title></dc:title>
      </cc:Work>
    </rdf:RDF>
  </metadata>
  <g
     transform="matrix(3.78072,0,0,3.78072,-64.021141,-1098.8728)"
     id="g2183" />
  <g
     transform="matrix(3.78072,0,0,3.78072,-65.014366,-1142.8861)"
     id="g2199" />
  <g
     transform="matrix(3.78072,0,0,3.78072,-2.9971538,-1185.3998)"
     id="g2203">
    <path
       id="path2106"
       transform="matrix(0.26449988,0,0,0.26449988,0.79274683,313.53811)"
       d="M 10 2.9941406 C 6.1448059 2.9941406 2.9921875 6.1389404 2.9921875 9.9941406 C 2.9921875 13.849341 6.1448059 17.001953 10 17.001953 C 11.546966 17.001953 12.97381 16.487771 14.134766 15.630859 L 19.294922 20.716797 A 1.0025742 1.0025742 0 0 0 20.699219 19.283203 L 15.5625 14.222656 C 16.458893 13.044588 17 11.581477 17 9.9941406 C 17 6.1389404 13.855194 2.9941406 10 2.9941406 z M 10 4.9960938 C 12.774314 4.9960938 14.998047 7.2198483 14.998047 9.9941406 C 14.998047 12.768471 12.774314 15 10 15 C 7.2256865 15 4.9921875 12.768471 4.9921875 9.9941406 C 4.9921875 7.2198483 7.2256865 4.9960938 10 4.9960938 z "
       style="color:#000000;font-style:normal;font-variant:normal;font-weight:normal;font-stretch:normal;font-size:medium;line-height:normal;font-family:sans-serif;font-variant-ligatures:normal;font-variant-position:normal;font-variant-caps:normal;font-variant-numeric:normal;font-variant-alternates:normal;font-feature-settings:normal;text-indent:0;text-align:start;text-decoration:none;text-decoration-line:none;text-decoration-style:solid;text-decoration-color:#000000;letter-spacing:normal;word-spacing:normal;text-transform:none;writing-mode:lr-tb;direction:ltr;text-orientation:mixed;dominant-baseline:auto;baseline-shift:baseline;text-anchor:start;white-space:normal;shape-padding:0;clip-rule:nonzero;display:inline;overflow:visible;visibility:visible;opacity:1;isolation:auto;mix-blend-mode:normal;color-interpolation:sRGB;color-interpolation-filters:linearRGB;solid-color:#000000;solid-opacity:1;vector-effect:none;fill:#000000;fill-opacity:1;fill-rule:nonzero;stroke:none;stroke-width:2.00000072;stroke-linecap:round;stroke-linejoin:round;stroke-miterlimit:4;stroke-dasharray:none;stroke-dashoffset:0;stroke-opacity:1;color-rendering:auto;image-rendering:auto;shape-rendering:auto;text-rendering:auto;enable-background:accumulate" />
  </g>
</svg>
